<svg width="36" height="36" viewBox="0 0 36 36" fill="none" xmlns="http://www.w3.org/2000/svg">
<path fill-rule="evenodd" clip-rule="evenodd" d="M18 35.5C27.665 35.5 35.5 27.665 35.5 18C35.5 8.33502 27.665 0.5 18 0.5C8.33502 0.5 0.5 8.33502 0.5 18C0.5 27.665 8.33502 35.5 18 35.5ZM15.945 33.4658V26.2111H12.087C12.031 26.2111 11.987 26.1663 11.987 26.1111V21.1146C11.987 21.0594 12.031 21.0146 12.087 21.0146H15.945V18.2616C15.945 13.7711 20.502 12.1829 22.531 12.1829H25.45C25.506 12.1829 25.55 12.2276 25.55 12.2829V16.7432C25.55 16.7985 25.506 16.8432 25.45 16.8432H23.632C22.882 16.8432 21.105 17.5362 21.105 18.8708V21.0146H25.45C25.51 21.0146 25.556 21.0668 25.549 21.1262L24.965 26.1227C24.959 26.1731 24.916 26.2111 24.866 26.2111H21.105V33.2911C28.233 31.8517 33.6 25.5526 33.6 18C33.6 9.38436 26.616 2.4 18 2.4C9.38436 2.4 2.4 9.38436 2.4 18C2.4 25.9189 8.301 32.4597 15.945 33.4658ZM17.545 33.4434V24.6111H13.587V22.6146H17.545V18.2616C17.545 16.6524 18.326 15.5842 19.384 14.8564C20.505 14.0855 21.834 13.7829 22.531 13.7829H23.95V15.2432C22.98 15.2432 22.061 15.4804 21.232 16.004C20.482 16.4783 19.505 17.4118 19.505 18.8708V22.6146H23.764L23.531 24.6111H19.505V33.4434H17.545Z" fill="#DFD8EB"/>
</svg>
