<svg width="32" height="32" viewBox="0 0 32" fill="none" xmlns="http://www.w3.org/2000/svg">
<path fill-rule="evenodd" clip-rule="evenodd" d="M16 23C19.866 23 23 19.866 23 16C23 12.134 19.866 9 16 9C12.134 9 9 12.134 9 16C9 19.866 12.134 23 16 23ZM16 21C18.7614 21 21 18.7614 21 16C21 13.2386 18.7614 11 16 11C13.2386 11 11 13.2386 11 16C11 18.7614 13.2386 21 16 21Z" fill="#DFD8EB"/>
<path d="M25 9C25.5523 9 26 8.55228 26 8C26 7.44772 25.5523 7 25 7C24.4477 7 24 7.44772 24 8C24 8.55228 24.4477 9 25 9Z" fill="#DFD8EB"/>
<path fill-rule="evenodd" clip-rule="evenodd" d="M9 0C4.02944 0 0 4.02944 0 9V23C0 27.9706 4.02944 32 9 32H23C27.9706 32 32 27.9706 32 23V9C32 4.02944 27.9706 0 23 0H9ZM23 2H9C5.13401 2 2 5.13401 2 9V23C2 26.866 5.13401 30 9 30H23C26.866 30 30 26.866 30 23V9C30 5.13401 26.866 2 23 2Z" fill="#DFD8EB"/>
</svg>
