<svg width="20" height="20" viewBox="0 0 20 20" fill="none" xmlns="http://www.w3.org/2000/svg">
<path d="M17.5211 10.9998C17.3003 10.9998 17.0694 10.9296 16.8487 10.8794C16.4015 10.7808 15.9621 10.65 15.5339 10.488C15.0684 10.3186 14.5566 10.3274 14.0971 10.5127C13.6376 10.6979 13.2629 11.0466 13.045 11.4916L12.8242 11.9432C11.8467 11.3994 10.9485 10.724 10.1546 9.93599C9.36656 9.14215 8.69119 8.24391 8.14742 7.2664L8.56893 6.98539C9.01389 6.76753 9.36256 6.3928 9.54784 5.93331C9.73312 5.47382 9.74191 4.96204 9.57253 4.49646C9.41318 4.06734 9.28243 3.62814 9.18113 3.18174C9.13095 2.96095 9.0908 2.73012 9.0607 2.49929C8.93882 1.79237 8.56855 1.1522 8.01657 0.694048C7.46458 0.235901 6.76716 -0.0101101 6.04989 0.000318446H3.03908C2.60656 -0.00374267 2.17824 0.0854375 1.78328 0.261788C1.38832 0.438138 1.036 0.697517 0.750291 1.02227C0.464586 1.34702 0.252207 1.72952 0.127613 2.14373C0.00301953 2.55793 -0.0308643 2.99412 0.0282687 3.4226C0.562926 7.62708 2.48311 11.5336 5.48551 14.5251C8.48791 17.5166 12.4014 19.4226 16.6078 19.9419H16.9892C17.7292 19.943 18.4438 19.6715 18.9964 19.1792C19.3139 18.8952 19.5675 18.5471 19.7405 18.1578C19.9135 17.7686 20.0019 17.347 20 16.9211V13.9103C19.9877 13.2131 19.7338 12.5419 19.2817 12.0111C18.8296 11.4803 18.2073 11.1229 17.5211 10.9998ZM18.0229 17.0214C18.0227 17.1639 17.9922 17.3047 17.9333 17.4345C17.8745 17.5643 17.7887 17.6801 17.6816 17.7741C17.5695 17.8709 17.4384 17.9433 17.2967 17.9865C17.1549 18.0297 17.0058 18.0428 16.8587 18.025C13.1001 17.5431 9.6089 15.8236 6.93578 13.1378C4.26267 10.4519 2.55977 6.95261 2.09569 3.19178C2.07972 3.04477 2.09372 2.89604 2.13684 2.7546C2.17996 2.61315 2.25132 2.48191 2.34659 2.36882C2.44064 2.26177 2.55641 2.17597 2.68619 2.11714C2.81597 2.0583 2.9568 2.02778 3.09929 2.0276H6.1101C6.34349 2.0224 6.57138 2.09873 6.75456 2.24344C6.93774 2.38815 7.06474 2.59219 7.1137 2.82044C7.15385 3.09476 7.20403 3.36573 7.26425 3.63336C7.38018 4.1624 7.53448 4.68231 7.7259 5.18895L6.32086 5.84129C6.20072 5.89641 6.09266 5.97471 6.00288 6.07171C5.91309 6.16871 5.84335 6.28249 5.79765 6.40651C5.75196 6.53054 5.73121 6.66237 5.73661 6.79443C5.74201 6.9265 5.77343 7.05619 5.82909 7.17608C7.27348 10.2699 9.76045 12.7569 12.8543 14.2013C13.0987 14.3017 13.3727 14.3017 13.6171 14.2013C13.7422 14.1565 13.8572 14.0873 13.9554 13.9978C14.0536 13.9082 14.1331 13.8 14.1891 13.6794L14.8113 12.2744C15.3302 12.4599 15.8597 12.6141 16.397 12.736C16.6647 12.7963 16.9356 12.8464 17.21 12.8866C17.4382 12.9355 17.6422 13.0625 17.787 13.2457C17.9317 13.4289 18.008 13.6568 18.0028 13.8902L18.0229 17.0214Z" fill="#D9FAA0"/>
</svg>
