<svg width="212" height="60" viewBox="0 0 212 60" fill="none" xmlns="http://www.w3.org/2000/svg">
<path fill-rule="evenodd" clip-rule="evenodd" d="M30 37C33.866 37 37 33.866 37 30C37 26.134 33.866 23 30 23C26.134 23 23 26.134 23 30C23 33.866 26.134 37 30 37ZM30 35C32.7614 35 35 32.7614 35 30C35 27.2386 32.7614 25 30 25C27.2386 25 25 27.2386 25 30C25 32.7614 27.2386 35 30 35Z" fill="#DFD8EB"/>
<path d="M39 23C39.5523 23 40 22.5523 40 22C40 21.4477 39.5523 21 39 21C38.4477 21 38 21.4477 38 22C38 22.5523 38.4477 23 39 23Z" fill="#DFD8EB"/>
<path fill-rule="evenodd" clip-rule="evenodd" d="M23 14C18.0294 14 14 18.0294 14 23V37C14 41.9706 18.0294 46 23 46H37C41.9706 46 46 41.9706 46 37V23C46 18.0294 41.9706 14 37 14H23ZM37 16H23C19.134 16 16 19.134 16 23V37C16 40.866 19.134 44 23 44H37C40.866 44 44 40.866 44 37V23C44 19.134 40.866 16 37 16Z" fill="#DFD8EB"/>
<path fill-rule="evenodd" clip-rule="evenodd" d="M122.25 19.3367L116.381 42.118C115.85 44.1808 113.451 45.01 111.752 43.9583C110.36 43.0972 107.465 41.3968 101.786 38.3439C100.656 37.7366 100.252 36.1542 101.221 35.0834L104.049 31.9592L99.4111 34.5008C97.9143 35.321 96.0635 35.7988 94.1528 35.3998C91.5594 34.8584 89.1246 33.8875 88.3896 33.5819C86.5394 32.8127 86.7915 30.3623 88.404 29.7032L119.543 16.9747C121.073 16.3493 122.663 17.7354 122.25 19.3367ZM89.1607 31.5545C89.0789 31.5879 89.0759 31.7012 89.1574 31.7351C89.8562 32.0257 92.1537 32.9393 94.5615 33.4421C95.893 33.72 97.2572 33.4004 98.45 32.7468L111.938 25.3559C112.235 25.1933 112.532 25.5695 112.305 25.8203L102.704 36.4257C102.66 36.4739 102.676 36.5515 102.733 36.5823C108.432 39.6455 111.365 41.367 112.804 42.2575C113.413 42.6344 114.265 42.3127 114.444 41.6191L120.313 18.8378C120.316 18.8298 120.308 18.8229 120.3 18.826L89.1607 31.5545Z" fill="#DFD8EB"/>
<path fill-rule="evenodd" clip-rule="evenodd" d="M199.879 30C199.879 39.665 192.044 47.5 182.379 47.5C172.714 47.5 164.879 39.665 164.879 30C164.879 20.335 172.714 12.5 182.379 12.5C192.044 12.5 199.879 20.335 199.879 30ZM180.324 45.4658V38.2111H176.466C176.41 38.2111 176.366 38.1663 176.366 38.1111V33.1146C176.366 33.0594 176.41 33.0146 176.466 33.0146H180.324V30.2616C180.324 25.7711 184.881 24.1829 186.91 24.1829H189.829C189.885 24.1829 189.929 24.2276 189.929 24.2829V28.7432C189.929 28.7985 189.885 28.8432 189.829 28.8432H188.011C187.261 28.8432 185.484 29.5362 185.484 30.8708V33.0146H189.829C189.889 33.0146 189.935 33.0668 189.928 33.1262L189.344 38.1227C189.338 38.1731 189.295 38.2111 189.245 38.2111H185.484V45.2911C192.612 43.8517 197.979 37.5526 197.979 30C197.979 21.3844 190.995 14.4 182.379 14.4C173.764 14.4 166.779 21.3844 166.779 30C166.779 37.9189 172.68 44.4597 180.324 45.4658ZM181.924 45.4434V36.6111H177.966V34.6146H181.924V30.2616C181.924 28.6524 182.705 27.5842 183.763 26.8564C184.884 26.0855 186.213 25.7829 186.91 25.7829H188.329V27.2432C187.359 27.2432 186.44 27.4804 185.611 28.004C184.861 28.4783 183.884 29.4118 183.884 30.8708V34.6146H188.143L187.91 36.6111H183.884V45.4434H181.924Z" fill="#DFD8EB"/>
</svg>
