<svg width="36" height="32" viewBox="0 0 36 32" fill="none" xmlns="http://www.w3.org/2000/svg">
<path fill-rule="evenodd" clip-rule="evenodd" d="M34.25 3.3367L28.381 26.118C27.85 28.1808 25.451 29.01 23.752 27.9583C22.36 27.0972 19.465 25.3968 13.786 22.3439C12.656 21.7366 12.252 20.1542 13.221 19.0834L16.049 15.9592L11.4111 18.5008C9.91432 19.321 8.06348 19.7988 6.15283 19.3998C3.55943 18.8584 1.12456 17.8875 0.389648 17.5819C-1.46055 16.8127 -1.20849 14.3623 0.404023 13.7032L31.543 0.974709C33.073 0.349273 34.663 1.73543 34.25 3.3367ZM1.16074 15.5545C1.07886 15.5879 1.07594 15.7012 1.15742 15.7351C1.85622 16.0257 4.15372 16.9393 6.56152 17.4421C7.89297 17.72 9.25718 17.4004 10.45 16.7468L23.938 9.35586C24.235 9.19326 24.532 9.56946 24.305 9.82026L14.704 20.4257C14.66 20.4739 14.676 20.5515 14.733 20.5823C20.432 23.6455 23.365 25.367 24.804 26.2575C25.413 26.6344 26.265 26.3127 26.444 25.6191L32.313 2.8378C32.316 2.8298 32.308 2.82286 32.3 2.82598L1.16074 15.5545Z" fill="#DFD8EB"/>
</svg>
